<svg width="28" height="28" viewBox="0 0 28 28" fill="none" xmlns="http://www.w3.org/2000/svg">
<path fill-rule="evenodd" clip-rule="evenodd" d="M11.8007 7.87141C12.0258 7.21589 12.7397 6.86696 13.3952 7.09205L16.6009 8.1928C18.151 8.72618 18.9766 10.4134 18.4412 11.9598C18.1735 12.7424 17.5942 13.3598 16.8847 13.6843C16.214 13.9997 15.4233 14.064 14.6605 13.7987C14.0059 13.571 13.6598 12.8557 13.8875 12.2011C14.0017 11.8728 14.2385 11.6221 14.5288 11.4825L15.0728 12.6134C15.5169 12.7678 15.9706 12.7292 16.3567 12.5458C16.7622 12.3624 17.1 12.0052 17.2545 11.5515C17.5634 10.6634 17.0904 9.68838 16.1926 9.37947L12.9877 8.27897L13.7523 9.86839L12.5801 9.4659C11.9246 9.24081 11.5756 8.52693 11.8007 7.87141Z" fill="white"/>
<path fill-rule="evenodd" clip-rule="evenodd" d="M12.3248 8.35728C12.1056 9.0148 11.3949 9.37015 10.7374 9.15098C10.727 9.14751 10.7164 9.14447 10.6776 9.13338L10.6669 9.13034C10.6667 9.13029 10.6666 9.13024 10.6664 9.13019C10.6614 9.13158 10.6554 9.13391 10.6484 9.13769C10.6255 9.14994 10.6002 9.17375 10.5837 9.20969L9.39882 11.9359C9.12255 12.5716 8.38329 12.8629 7.74765 12.5866C7.112 12.3103 6.82067 11.5711 7.09694 10.9354L8.28432 8.20351L8.2877 8.19581C8.77045 7.10514 9.96222 6.40585 11.2151 6.67569C11.2734 6.68825 11.3305 6.70489 11.386 6.72541C11.4201 6.73515 11.4755 6.75134 11.5311 6.76988C12.1886 6.98905 12.544 7.69975 12.3248 8.35728ZM11.1343 7.96043C11.0961 7.9477 11.0579 7.93684 11.0263 7.92784C10.9859 7.91636 10.9563 7.90792 10.9508 7.90251C10.3234 7.76736 9.6959 8.11488 9.43526 8.70374L8.24788 11.4357L11.1343 7.96043Z" fill="white"/>
<mask id="path-3-outside-1_1518_3096" maskUnits="userSpaceOnUse" x="3" y="1" width="22" height="26" fill="black">
<rect fill="white" x="3" y="1" width="22" height="26"/>
<path fill-rule="evenodd" clip-rule="evenodd" d="M8.48921 9.22498C8.50369 9.22981 8.58816 9.26359 8.67262 9.29738C8.75709 9.33117 8.84156 9.36495 8.85604 9.36978L9.82592 10.1667C9.9208 10.0513 9.99652 9.91684 10.0466 9.76663C10.2621 9.12007 9.9221 8.42208 9.28551 8.1906C9.27844 8.18785 9.26771 8.18362 9.25302 8.1778C9.22175 8.1654 9.18154 8.14932 9.1387 8.13219L9.13721 8.13159C9.09602 8.11512 9.05238 8.09766 9.01711 8.08368C8.99942 8.07667 8.98154 8.06962 8.966 8.06359C8.95835 8.06062 8.94907 8.05705 8.93952 8.05346L8.93894 8.05324C8.93325 8.0511 8.91153 8.04292 8.88606 8.03443C8.87683 8.03135 8.86757 8.02838 8.85827 8.02552C8.52616 7.92334 8.05724 7.8215 7.54682 7.91633C6.97937 8.02176 6.50144 8.34275 6.1579 8.83353L6.15662 8.83535C5.8674 9.25009 5.53311 9.81196 5.28395 10.2446C5.15635 10.4662 5.04544 10.6638 4.96636 10.8061C4.92676 10.8774 4.89501 10.9351 4.87297 10.9752C4.86195 10.9953 4.85335 11.011 4.84741 11.0219L4.83782 11.0395C4.8378 11.0396 4.83778 11.0396 5.94069 11.6383L4.83778 11.0396L4.83575 11.0434C4.68452 11.3242 4.56673 11.5709 4.46978 11.7745C4.46389 11.7869 4.4582 11.7994 4.45272 11.8119C4.06186 12.7071 3.92592 13.6843 4.0378 14.6415C4.03819 14.6448 4.03859 14.6481 4.03901 14.6514C4.07875 14.9694 4.13296 15.376 4.24338 15.8528C4.56557 17.326 4.89036 18.3172 5.14963 19.0442C5.21674 19.2324 5.27395 19.39 5.32267 19.5242C5.48097 19.9603 5.5495 20.1491 5.57615 20.3352C5.58755 20.4203 5.58434 20.5235 5.56299 20.7406C5.56145 20.7563 5.55961 20.7739 5.5576 20.7933C5.53862 20.9756 5.50373 21.3108 5.54494 21.6405C5.61551 22.205 5.79356 22.6941 6.09807 23.1239C6.38796 23.533 6.74737 23.8223 7.06136 24.0482C7.06438 24.0504 7.06741 24.0525 7.07045 24.0547C7.71475 24.5095 9.00808 25.312 11.8766 25.7381L11.8799 25.7386C12.6419 25.8497 13.3461 25.8867 13.9457 25.8642C14.5117 25.843 15.0869 25.7657 15.536 25.582C16.1836 25.3204 16.6765 24.8901 16.9942 24.5572C17.3203 24.2156 17.5263 23.9084 17.5893 23.8094C17.5934 23.8029 17.5974 23.7965 17.6014 23.79C18.1203 22.9408 17.9662 22.1366 17.8775 21.7402C18.4807 21.1812 18.6061 21.0433 18.9507 20.6412C18.9529 20.6386 18.9551 20.636 18.9573 20.6334C19.2397 20.2984 19.4526 20.0674 19.6598 19.8427C19.739 19.7567 19.8174 19.6716 19.8986 19.582L19.9091 19.5712C19.9168 19.5632 19.9259 19.5538 19.9361 19.5432C19.9678 19.5105 20.0105 19.4662 20.0539 19.4209C20.0965 19.3764 20.1429 19.3278 20.1805 19.2875C20.1986 19.2681 20.2198 19.2452 20.2392 19.2235C20.2418 19.2206 20.245 19.2171 20.2486 19.213C20.5502 18.9121 20.7969 18.7778 20.9735 18.7202C20.9799 18.7182 20.9863 18.716 20.9927 18.7138C22.3208 18.2576 23.386 17.743 24.0243 16.4664C24.6441 15.2267 24.4113 13.9929 23.8081 13.0957C23.2409 12.252 22.2978 11.6266 21.3003 11.5117C20.3468 11.3982 19.6653 11.5822 19.0669 11.9312C18.8685 12.0469 18.6717 12.1871 18.5265 12.2905C18.4952 12.3128 18.4663 12.3334 18.4404 12.3516C18.2749 12.4679 18.1317 12.5616 17.967 12.6447C17.7429 12.7494 17.4793 12.6634 17.3596 12.4442C17.3477 12.4139 17.3341 12.3829 17.3187 12.3514C17.2753 12.2223 17.228 11.9816 17.1921 11.5508C17.1662 11.2389 17.1506 10.9052 17.1324 10.5165C17.1222 10.2982 17.1111 10.0624 17.097 9.80339C17.0214 8.41733 16.8671 6.6501 16.2627 4.68562L16.2614 4.68165C15.8326 3.30414 14.4909 1.89099 12.7449 2.00665C11.4719 2.08183 10.604 2.71167 10.0769 3.56394C9.83454 3.95539 9.73299 4.38993 9.6869 4.75959C9.63937 5.14081 9.64031 5.54405 9.66375 5.93457C9.71042 6.71225 9.85632 7.5797 10.0016 8.36576C10.0452 8.60187 10.0884 8.82891 10.1298 9.04662C10.2325 9.58682 10.3243 10.0697 10.385 10.4916C10.3927 10.5448 10.3995 10.5952 10.4057 10.6431L11.6169 11.6383C11.829 11.2641 11.6076 10.0999 11.357 8.7824C11.0259 7.04126 10.6438 5.03228 11.1439 4.22449C11.4721 3.69355 11.9838 3.30741 12.8236 3.25914C13.8083 3.19157 14.7446 4.03142 15.0632 5.05469C15.7197 7.18843 15.8088 9.08658 15.8772 10.5429C15.9254 11.5705 15.9634 12.3781 16.183 12.8933C16.1926 12.9029 16.1927 12.903 16.1927 12.9126C16.5885 13.8104 17.6407 14.1965 18.5191 13.7718C18.8215 13.6206 19.0565 13.4536 19.2746 13.2986C19.7808 12.9389 20.1966 12.6435 21.1545 12.7581C22.3419 12.8933 23.6837 14.3413 22.9018 15.9052C22.4964 16.7161 21.8496 17.0925 20.585 17.5269C20.1699 17.6621 19.7451 17.9324 19.3204 18.3668C19.3107 18.3861 18.9825 18.724 18.9825 18.724C18.9085 18.8059 18.8323 18.8886 18.7521 18.9756C18.5396 19.2062 18.2993 19.467 17.9979 19.8245C17.6503 20.2299 17.5828 20.3072 16.7429 21.0794C16.4919 21.3072 16.5565 21.591 16.6317 21.9211C16.7126 22.2763 16.8058 22.6852 16.5305 23.1356C16.463 23.2418 15.9031 24.0817 15.0632 24.4195C14.5709 24.6222 13.4511 24.6995 12.061 24.4967C9.39663 24.101 8.28649 23.3769 7.79416 23.0294C7.24392 22.6336 6.88673 22.2571 6.7902 21.4849C6.76785 21.3061 6.7869 21.1148 6.80708 20.9122C6.83049 20.6771 6.85544 20.4267 6.81915 20.1623C6.77286 19.8345 6.64642 19.4881 6.47185 19.0099C6.20955 18.2913 5.83861 17.2752 5.46767 15.577C5.37114 15.1619 5.32288 14.8047 5.28426 14.4958C5.19738 13.7525 5.30356 12.9995 5.60282 12.3141C5.69936 12.1114 5.80554 11.8893 5.94069 11.6383C5.94069 11.6383 6.67436 10.2869 7.18599 9.5532C7.52386 9.07052 7.98723 9.07052 8.48921 9.22498Z"/>
</mask>
<path fill-rule="evenodd" clip-rule="evenodd" d="M8.48921 9.22498C8.50369 9.22981 8.58816 9.26359 8.67262 9.29738C8.75709 9.33117 8.84156 9.36495 8.85604 9.36978L9.82592 10.1667C9.9208 10.0513 9.99652 9.91684 10.0466 9.76663C10.2621 9.12007 9.9221 8.42208 9.28551 8.1906C9.27844 8.18785 9.26771 8.18362 9.25302 8.1778C9.22175 8.1654 9.18154 8.14932 9.1387 8.13219L9.13721 8.13159C9.09602 8.11512 9.05238 8.09766 9.01711 8.08368C8.99942 8.07667 8.98154 8.06962 8.966 8.06359C8.95835 8.06062 8.94907 8.05705 8.93952 8.05346L8.93894 8.05324C8.93325 8.0511 8.91153 8.04292 8.88606 8.03443C8.87683 8.03135 8.86757 8.02838 8.85827 8.02552C8.52616 7.92334 8.05724 7.8215 7.54682 7.91633C6.97937 8.02176 6.50144 8.34275 6.1579 8.83353L6.15662 8.83535C5.8674 9.25009 5.53311 9.81196 5.28395 10.2446C5.15635 10.4662 5.04544 10.6638 4.96636 10.8061C4.92676 10.8774 4.89501 10.9351 4.87297 10.9752C4.86195 10.9953 4.85335 11.011 4.84741 11.0219L4.83782 11.0395C4.8378 11.0396 4.83778 11.0396 5.94069 11.6383L4.83778 11.0396L4.83575 11.0434C4.68452 11.3242 4.56673 11.5709 4.46978 11.7745C4.46389 11.7869 4.4582 11.7994 4.45272 11.8119C4.06186 12.7071 3.92592 13.6843 4.0378 14.6415C4.03819 14.6448 4.03859 14.6481 4.03901 14.6514C4.07875 14.9694 4.13296 15.376 4.24338 15.8528C4.56557 17.326 4.89036 18.3172 5.14963 19.0442C5.21674 19.2324 5.27395 19.39 5.32267 19.5242C5.48097 19.9603 5.5495 20.1491 5.57615 20.3352C5.58755 20.4203 5.58434 20.5235 5.56299 20.7406C5.56145 20.7563 5.55961 20.7739 5.5576 20.7933C5.53862 20.9756 5.50373 21.3108 5.54494 21.6405C5.61551 22.205 5.79356 22.6941 6.09807 23.1239C6.38796 23.533 6.74737 23.8223 7.06136 24.0482C7.06438 24.0504 7.06741 24.0525 7.07045 24.0547C7.71475 24.5095 9.00808 25.312 11.8766 25.7381L11.8799 25.7386C12.6419 25.8497 13.3461 25.8867 13.9457 25.8642C14.5117 25.843 15.0869 25.7657 15.536 25.582C16.1836 25.3204 16.6765 24.8901 16.9942 24.5572C17.3203 24.2156 17.5263 23.9084 17.5893 23.8094C17.5934 23.8029 17.5974 23.7965 17.6014 23.79C18.1203 22.9408 17.9662 22.1366 17.8775 21.7402C18.4807 21.1812 18.6061 21.0433 18.9507 20.6412C18.9529 20.6386 18.9551 20.636 18.9573 20.6334C19.2397 20.2984 19.4526 20.0674 19.6598 19.8427C19.739 19.7567 19.8174 19.6716 19.8986 19.582L19.9091 19.5712C19.9168 19.5632 19.9259 19.5538 19.9361 19.5432C19.9678 19.5105 20.0105 19.4662 20.0539 19.4209C20.0965 19.3764 20.1429 19.3278 20.1805 19.2875C20.1986 19.2681 20.2198 19.2452 20.2392 19.2235C20.2418 19.2206 20.245 19.2171 20.2486 19.213C20.5502 18.9121 20.7969 18.7778 20.9735 18.7202C20.9799 18.7182 20.9863 18.716 20.9927 18.7138C22.3208 18.2576 23.386 17.743 24.0243 16.4664C24.6441 15.2267 24.4113 13.9929 23.8081 13.0957C23.2409 12.252 22.2978 11.6266 21.3003 11.5117C20.3468 11.3982 19.6653 11.5822 19.0669 11.9312C18.8685 12.0469 18.6717 12.1871 18.5265 12.2905C18.4952 12.3128 18.4663 12.3334 18.4404 12.3516C18.2749 12.4679 18.1317 12.5616 17.967 12.6447C17.7429 12.7494 17.4793 12.6634 17.3596 12.4442C17.3477 12.4139 17.3341 12.3829 17.3187 12.3514C17.2753 12.2223 17.228 11.9816 17.1921 11.5508C17.1662 11.2389 17.1506 10.9052 17.1324 10.5165C17.1222 10.2982 17.1111 10.0624 17.097 9.80339C17.0214 8.41733 16.8671 6.6501 16.2627 4.68562L16.2614 4.68165C15.8326 3.30414 14.4909 1.89099 12.7449 2.00665C11.4719 2.08183 10.604 2.71167 10.0769 3.56394C9.83454 3.95539 9.73299 4.38993 9.6869 4.75959C9.63937 5.14081 9.64031 5.54405 9.66375 5.93457C9.71042 6.71225 9.85632 7.5797 10.0016 8.36576C10.0452 8.60187 10.0884 8.82891 10.1298 9.04662C10.2325 9.58682 10.3243 10.0697 10.385 10.4916C10.3927 10.5448 10.3995 10.5952 10.4057 10.6431L11.6169 11.6383C11.829 11.2641 11.6076 10.0999 11.357 8.7824C11.0259 7.04126 10.6438 5.03228 11.1439 4.22449C11.4721 3.69355 11.9838 3.30741 12.8236 3.25914C13.8083 3.19157 14.7446 4.03142 15.0632 5.05469C15.7197 7.18843 15.8088 9.08658 15.8772 10.5429C15.9254 11.5705 15.9634 12.3781 16.183 12.8933C16.1926 12.9029 16.1927 12.903 16.1927 12.9126C16.5885 13.8104 17.6407 14.1965 18.5191 13.7718C18.8215 13.6206 19.0565 13.4536 19.2746 13.2986C19.7808 12.9389 20.1966 12.6435 21.1545 12.7581C22.3419 12.8933 23.6837 14.3413 22.9018 15.9052C22.4964 16.7161 21.8496 17.0925 20.585 17.5269C20.1699 17.6621 19.7451 17.9324 19.3204 18.3668C19.3107 18.3861 18.9825 18.724 18.9825 18.724C18.9085 18.8059 18.8323 18.8886 18.7521 18.9756C18.5396 19.2062 18.2993 19.467 17.9979 19.8245C17.6503 20.2299 17.5828 20.3072 16.7429 21.0794C16.4919 21.3072 16.5565 21.591 16.6317 21.9211C16.7126 22.2763 16.8058 22.6852 16.5305 23.1356C16.463 23.2418 15.9031 24.0817 15.0632 24.4195C14.5709 24.6222 13.4511 24.6995 12.061 24.4967C9.39663 24.101 8.28649 23.3769 7.79416 23.0294C7.24392 22.6336 6.88673 22.2571 6.7902 21.4849C6.76785 21.3061 6.7869 21.1148 6.80708 20.9122C6.83049 20.6771 6.85544 20.4267 6.81915 20.1623C6.77286 19.8345 6.64642 19.4881 6.47185 19.0099C6.20955 18.2913 5.83861 17.2752 5.46767 15.577C5.37114 15.1619 5.32288 14.8047 5.28426 14.4958C5.19738 13.7525 5.30356 12.9995 5.60282 12.3141C5.69936 12.1114 5.80554 11.8893 5.94069 11.6383C5.94069 11.6383 6.67436 10.2869 7.18599 9.5532C7.52386 9.07052 7.98723 9.07052 8.48921 9.22498Z" fill="white"/>
<path d="M8.48921 9.22498L8.60035 8.89155L8.59254 8.88914L8.48921 9.22498ZM8.85604 9.36978L9.07911 9.0983C9.04589 9.071 9.00794 9.05004 8.96716 9.03644L8.85604 9.36978ZM9.82592 10.1667L9.60285 10.4382C9.75276 10.5614 9.97414 10.5397 10.0974 10.3898L9.82592 10.1667ZM10.0466 9.76663L9.71325 9.65552L9.71325 9.65552L10.0466 9.76663ZM9.28551 8.1906L9.1581 8.51814L9.16543 8.52081L9.28551 8.1906ZM9.25302 8.1778L9.12354 8.50445L9.12354 8.50445L9.25302 8.1778ZM9.1387 8.13219L9.26919 7.80594L9.2691 7.80591L9.1387 8.13219ZM9.13721 8.13159L9.00672 8.45783L9.00681 8.45787L9.13721 8.13159ZM9.01711 8.08368L8.88763 8.41033L8.88764 8.41033L9.01711 8.08368ZM8.966 8.06359L8.8389 8.39117L8.83891 8.39117L8.966 8.06359ZM8.93952 8.05346L8.81567 8.38228L8.81583 8.38234L8.93952 8.05346ZM8.93894 8.05324L9.06279 7.72442L9.06273 7.72439L8.93894 8.05324ZM8.88606 8.03443L8.77494 8.36777L8.77494 8.36777L8.88606 8.03443ZM8.85827 8.02552L8.96161 7.68969L8.9616 7.68969L8.85827 8.02552ZM7.54682 7.91633L7.48263 7.57087L7.48263 7.57087L7.54682 7.91633ZM6.1579 8.83353L5.87004 8.63203L5.86986 8.6323L6.1579 8.83353ZM6.15662 8.83535L5.86859 8.63411L5.86841 8.63436L6.15662 8.83535ZM5.28395 10.2446L5.58845 10.42L5.58845 10.42L5.28395 10.2446ZM4.96636 10.8061L4.65922 10.6355L4.65922 10.6355L4.96636 10.8061ZM4.87297 10.9752L5.18103 11.1442L5.18103 11.1442L4.87297 10.9752ZM4.84741 11.0219L4.53896 10.8536L4.53884 10.8539L4.84741 11.0219ZM4.83782 11.0395L4.52924 10.8715L4.5283 10.8732L4.83782 11.0395ZM4.83778 11.0396L5.00541 10.7308C4.92342 10.6863 4.8271 10.6762 4.73767 10.7028C4.64825 10.7294 4.57306 10.7904 4.52869 10.8725L4.83778 11.0396ZM4.83575 11.0434L4.52666 10.8763L4.52637 10.8768L4.83575 11.0434ZM4.46978 11.7745L4.78701 11.9256L4.78702 11.9256L4.46978 11.7745ZM4.45272 11.8119L4.1307 11.6713L4.1307 11.6713L4.45272 11.8119ZM4.0378 14.6415L3.6888 14.6823L3.6888 14.6823L4.0378 14.6415ZM4.03901 14.6514L4.38766 14.6078L4.38766 14.6078L4.03901 14.6514ZM4.24338 15.8528L4.58666 15.7777L4.58569 15.7735L4.24338 15.8528ZM5.14963 19.0442L4.81868 19.1622L4.81868 19.1622L5.14963 19.0442ZM5.32267 19.5242L4.99238 19.6441L4.99238 19.6441L5.32267 19.5242ZM5.57615 20.3352L5.92443 20.2885L5.92397 20.2853L5.57615 20.3352ZM5.56299 20.7406L5.91268 20.775L5.91268 20.775L5.56299 20.7406ZM5.5576 20.7933L5.20812 20.7569L5.20812 20.7569L5.5576 20.7933ZM5.54494 21.6405L5.19628 21.6841L5.19628 21.6841L5.54494 21.6405ZM6.09807 23.1239L5.81137 23.327L5.81137 23.327L6.09807 23.1239ZM7.06136 24.0482L7.26658 23.763L7.26654 23.7629L7.06136 24.0482ZM7.07045 24.0547L7.27308 23.7676L7.27306 23.7676L7.07045 24.0547ZM11.8766 25.7381L11.825 26.0856L11.8254 26.0857L11.8766 25.7381ZM11.8799 25.7386L11.8287 26.0862L11.8292 26.0863L11.8799 25.7386ZM13.9457 25.8642L13.9326 25.5131L13.9326 25.5131L13.9457 25.8642ZM15.536 25.582L15.4044 25.2562L15.4029 25.2568L15.536 25.582ZM16.9942 24.5572L16.7401 24.3146L16.7401 24.3146L16.9942 24.5572ZM17.5893 23.8094L17.8857 23.998L17.8857 23.998L17.5893 23.8094ZM17.6014 23.79L17.9012 23.9733L17.9012 23.9732L17.6014 23.79ZM17.8775 21.7402L17.6386 21.4825C17.5469 21.5675 17.5072 21.6949 17.5346 21.8169L17.8775 21.7402ZM18.9507 20.6412L18.6839 20.4125L18.6839 20.4125L18.9507 20.6412ZM18.9573 20.6334L19.2259 20.86L19.2259 20.8599L18.9573 20.6334ZM19.6598 19.8427L19.9181 20.0809L19.9181 20.0809L19.6598 19.8427ZM19.8986 19.582L19.6461 19.3373L19.6381 19.3462L19.8986 19.582ZM19.9091 19.5712L20.1614 19.8157L20.1614 19.8156L19.9091 19.5712ZM19.9361 19.5432L19.6835 19.299L19.6835 19.299L19.9361 19.5432ZM20.0539 19.4209L19.8002 19.1778L19.8002 19.1778L20.0539 19.4209ZM20.1805 19.2875L20.4373 19.5273L20.4373 19.5273L20.1805 19.2875ZM20.2392 19.2235L19.9771 18.9895L19.9771 18.9895L20.2392 19.2235ZM20.2486 19.213L20.0004 18.9642C19.9951 18.9695 19.9899 18.975 19.9849 18.9807L20.2486 19.213ZM20.9735 18.7202L21.0823 19.0544L21.0823 19.0544L20.9735 18.7202ZM20.9927 18.7138L20.8785 18.3815L20.8785 18.3815L20.9927 18.7138ZM24.0243 16.4664L23.71 16.3093L23.71 16.3093L24.0243 16.4664ZM23.8081 13.0957L24.0997 12.8997L24.0997 12.8997L23.8081 13.0957ZM21.3003 11.5117L21.2587 11.8606L21.2601 11.8608L21.3003 11.5117ZM19.0669 11.9312L19.244 12.2347L19.244 12.2347L19.0669 11.9312ZM18.5265 12.2905L18.3226 12.0043L18.3226 12.0043L18.5265 12.2905ZM18.4404 12.3516L18.6423 12.6391L18.6423 12.6391L18.4404 12.3516ZM17.967 12.6447L18.1158 12.9632L18.1253 12.9584L17.967 12.6447ZM17.3596 12.4442L17.0326 12.5729C17.038 12.5865 17.0442 12.5998 17.0512 12.6126L17.3596 12.4442ZM17.3187 12.3514L16.9856 12.4632C16.9905 12.4778 16.9963 12.492 17.0031 12.5058L17.3187 12.3514ZM17.1921 11.5508L16.842 11.5799L16.842 11.5799L17.1921 11.5508ZM17.1324 10.5165L17.4834 10.5001L17.4834 10.5001L17.1324 10.5165ZM17.097 9.80339L17.4479 9.78425L17.4479 9.78425L17.097 9.80339ZM16.2627 4.68562L16.5985 4.58229L16.5983 4.58178L16.2627 4.68562ZM16.2614 4.68165L16.5971 4.57781L16.5969 4.57721L16.2614 4.68165ZM12.7449 2.00665L12.7657 2.35742L12.7682 2.35725L12.7449 2.00665ZM10.0769 3.56394L10.3756 3.74889L10.3757 3.74876L10.0769 3.56394ZM9.6869 4.75959L10.0356 4.80306L10.0356 4.80306L9.6869 4.75959ZM9.66375 5.93457L9.31301 5.95562L9.31301 5.95562L9.66375 5.93457ZM10.0016 8.36576L9.65603 8.4296L9.65603 8.4296L10.0016 8.36576ZM10.1298 9.04662L10.4749 8.98098L10.4749 8.98098L10.1298 9.04662ZM10.385 10.4916L10.0372 10.5417L10.0372 10.5417L10.385 10.4916ZM10.4057 10.6431L10.0572 10.6879C10.0686 10.7766 10.1135 10.8577 10.1826 10.9146L10.4057 10.6431ZM11.6169 11.6383L11.3939 11.9098C11.474 11.9757 11.5791 12.0027 11.6811 11.9838C11.7831 11.9649 11.8715 11.9018 11.9226 11.8116L11.6169 11.6383ZM11.357 8.7824L11.7022 8.71675L11.7022 8.71675L11.357 8.7824ZM11.1439 4.22449L11.4427 4.40944L11.4428 4.40925L11.1439 4.22449ZM12.8236 3.25914L12.8438 3.60996L12.8477 3.60969L12.8236 3.25914ZM15.0632 5.05469L15.399 4.95135L15.3987 4.95024L15.0632 5.05469ZM15.8772 10.5429L15.5262 10.5594L15.5262 10.5594L15.8772 10.5429ZM16.183 12.8933L15.8598 13.0311C15.8774 13.0724 15.9028 13.11 15.9345 13.1417L16.183 12.8933ZM16.1927 12.9126H15.8413C15.8413 12.9614 15.8515 13.0097 15.8712 13.0543L16.1927 12.9126ZM18.5191 13.7718L18.6721 14.0881L18.6763 14.086L18.5191 13.7718ZM19.2746 13.2986L19.0711 13.0122L19.0711 13.0122L19.2746 13.2986ZM21.1545 12.7581L21.1128 13.107L21.1148 13.1073L21.1545 12.7581ZM22.9018 15.9052L22.5875 15.748L22.5875 15.748L22.9018 15.9052ZM20.585 17.5269L20.6938 17.8611L20.6991 17.8593L20.585 17.5269ZM19.3204 18.3668L19.0691 18.1212C19.0437 18.1472 19.0224 18.1771 19.0061 18.2097L19.3204 18.3668ZM18.9825 18.724L18.7303 18.479L18.7218 18.4885L18.9825 18.724ZM18.7521 18.9756L18.4938 18.7375L18.4938 18.7375L18.7521 18.9756ZM17.9979 19.8245L18.2646 20.0532L18.2665 20.051L17.9979 19.8245ZM16.7429 21.0794L16.979 21.3396L16.9807 21.3381L16.7429 21.0794ZM16.6317 21.9211L16.9743 21.843L16.9743 21.843L16.6317 21.9211ZM16.5305 23.1356L16.827 23.3243L16.8304 23.3188L16.5305 23.1356ZM15.0632 24.4195L14.9321 24.0935L14.9294 24.0946L15.0632 24.4195ZM12.061 24.4967L12.0094 24.8443L12.0103 24.8444L12.061 24.4967ZM7.79416 23.0294L7.58898 23.3147L7.59153 23.3165L7.79416 23.0294ZM6.7902 21.4849L6.44154 21.5284L6.44154 21.5284L6.7902 21.4849ZM6.80708 20.9122L6.45744 20.8773L6.45744 20.8773L6.80708 20.9122ZM6.81915 20.1623L7.16726 20.1146L7.16708 20.1132L6.81915 20.1623ZM6.47185 19.0099L6.14178 19.1303L6.14178 19.1303L6.47185 19.0099ZM5.46767 15.577L5.81098 15.502L5.80991 15.4974L5.46767 15.577ZM5.28426 14.4958L4.93526 14.5366L4.93561 14.5394L5.28426 14.4958ZM5.60282 12.3141L5.28541 12.1629L5.28081 12.1735L5.60282 12.3141ZM7.18599 9.5532L6.89813 9.3517L6.89778 9.35221L7.18599 9.5532ZM8.80312 8.97114C8.72879 8.94141 8.62779 8.90079 8.60032 8.89164L8.37809 9.55832C8.37196 9.55628 8.37127 9.55583 8.38501 9.56116C8.39509 9.56507 8.40871 9.57043 8.42519 9.57696C8.45806 9.58999 8.49973 9.60666 8.54213 9.62362L8.80312 8.97114ZM8.96716 9.03644C8.97329 9.03848 8.97398 9.03893 8.96024 9.0336C8.95016 9.02969 8.93654 9.02433 8.92006 9.0178C8.88719 9.00477 8.84552 8.9881 8.80312 8.97114L8.54213 9.62362C8.61645 9.65335 8.71746 9.69396 8.74493 9.70312L8.96716 9.03644ZM10.049 9.89522L9.07911 9.0983L8.63297 9.64126L9.60285 10.4382L10.049 9.89522ZM10.0974 10.3898C10.2191 10.2417 10.316 10.0694 10.3799 9.87774L9.71325 9.65552C9.677 9.76428 9.62247 9.86087 9.55448 9.94358L10.0974 10.3898ZM10.3799 9.87774C10.6558 9.0501 10.2206 8.15674 9.40559 7.86038L9.16543 8.52081C9.62361 8.68742 9.86841 9.19003 9.71325 9.65552L10.3799 9.87774ZM9.4129 7.86313C9.40685 7.86078 9.39692 7.85687 9.3825 7.85116L9.12354 8.50445C9.13849 8.51037 9.15003 8.51491 9.15813 8.51806L9.4129 7.86313ZM9.3825 7.85116C9.35184 7.839 9.31221 7.82315 9.26919 7.80594L9.0082 8.45843C9.05087 8.47549 9.09165 8.4918 9.12354 8.50445L9.3825 7.85116ZM9.2691 7.80591L9.26761 7.80531L9.00681 8.45787L9.00829 8.45846L9.2691 7.80591ZM9.26771 7.80535C9.22667 7.78894 9.18248 7.77126 9.14659 7.75704L8.88764 8.41033C8.92229 8.42406 8.96537 8.44129 9.00672 8.45783L9.26771 7.80535ZM9.14659 7.75704C9.12863 7.74992 9.10982 7.7425 9.09308 7.736L8.83891 8.39117C8.85326 8.39674 8.87021 8.40342 8.88763 8.41033L9.14659 7.75704ZM9.09309 7.73601C9.08487 7.73282 9.07435 7.72876 9.0632 7.72457L8.81583 8.38234C8.82379 8.38533 8.83183 8.38842 8.8389 8.39117L9.09309 7.73601ZM9.06337 7.72463L9.06279 7.72442L8.81509 8.38206L8.81567 8.38228L9.06337 7.72463ZM9.06273 7.72439C9.05598 7.72185 9.02919 7.71176 8.99717 7.70109L8.77494 8.36777C8.79386 8.37408 8.81052 8.38034 8.81515 8.38208L9.06273 7.72439ZM8.99717 7.70109C8.98536 7.69715 8.9735 7.69335 8.96161 7.68969L8.75493 8.36136C8.76163 8.36342 8.7683 8.36555 8.77494 8.36777L8.99717 7.70109ZM8.9616 7.68969C8.60661 7.58046 8.07403 7.46099 7.48263 7.57087L7.611 8.26179C8.04044 8.182 8.44571 8.26621 8.75494 8.36136L8.9616 7.68969ZM7.48263 7.57087C6.81792 7.69437 6.26234 8.07161 5.87004 8.63203L6.44575 9.03503C6.74054 8.6139 7.14083 8.34915 7.611 8.26179L7.48263 7.57087ZM5.86986 8.6323L5.86859 8.63411L6.44466 9.03659L6.44593 9.03477L5.86986 8.6323ZM5.86841 8.63436C5.56984 9.0625 5.22914 9.6357 4.97946 10.0693L5.58845 10.42C5.83708 9.98821 6.16495 9.43769 6.44483 9.03634L5.86841 8.63436ZM4.97946 10.0693C4.85076 10.2928 4.73895 10.492 4.65922 10.6355L5.27349 10.9768C5.35193 10.8357 5.46194 10.6397 5.58845 10.42L4.97946 10.0693ZM4.65922 10.6355C4.61928 10.7073 4.58722 10.7655 4.56492 10.8062L5.18103 11.1442C5.20279 11.1046 5.23424 11.0475 5.27349 10.9768L4.65922 10.6355ZM4.56492 10.8062C4.55376 10.8265 4.54503 10.8425 4.53896 10.8536L5.15586 11.1902C5.16168 11.1796 5.17014 11.1641 5.18103 11.1442L4.56492 10.8062ZM4.5283 10.8732C4.53223 10.8659 4.4999 10.9191 4.48986 10.9907C4.47781 11.0766 4.49923 11.1502 4.52628 11.202C4.54939 11.2463 4.57659 11.2751 4.58864 11.2873C4.60258 11.3013 4.61481 11.3112 4.62124 11.3162C4.63399 11.3262 4.64464 11.3331 4.64766 11.335C4.6521 11.3379 4.65568 11.34 4.65743 11.3411C4.66098 11.3432 4.6638 11.3448 4.6646 11.3452C4.66579 11.3459 4.66675 11.3464 4.66726 11.3467C4.66892 11.3477 4.67064 11.3486 4.67155 11.3491C4.67405 11.3505 4.67865 11.353 4.68722 11.3576C4.70453 11.367 4.73907 11.3858 4.80798 11.4232C4.94586 11.4981 5.2216 11.6478 5.77305 11.9471L6.10833 11.3295C5.55687 11.0302 5.28116 10.8805 5.14333 10.8056C5.07439 10.7682 5.04 10.7495 5.02286 10.7402C5.0142 10.7355 5.01019 10.7333 5.00839 10.7323C5.00715 10.7317 5.0078 10.732 5.00892 10.7326C5.00929 10.7328 5.01015 10.7333 5.01127 10.734C5.01199 10.7344 5.01476 10.7359 5.01828 10.738C5.02001 10.7391 5.02358 10.7412 5.02801 10.7441C5.03102 10.746 5.04166 10.7529 5.05441 10.7628C5.06084 10.7679 5.07307 10.7778 5.08701 10.7918C5.09906 10.8039 5.12626 10.8327 5.14937 10.877C5.17641 10.9289 5.19783 11.0025 5.18578 11.0884C5.17574 11.1599 5.14341 11.2132 5.14735 11.2058L4.5283 10.8732ZM6.10833 11.3295L5.00541 10.7308L4.67014 11.3484L5.77305 11.9471L6.10833 11.3295ZM4.52869 10.8725L4.52666 10.8763L5.14483 11.2105L5.14686 11.2067L4.52869 10.8725ZM4.52637 10.8768C4.37065 11.166 4.24962 11.4196 4.15254 11.6235L4.78702 11.9256C4.88383 11.7223 4.99838 11.4825 5.14512 11.21L4.52637 10.8768ZM4.15254 11.6235C4.145 11.6393 4.13772 11.6553 4.1307 11.6713L4.77473 11.9525C4.77868 11.9435 4.78278 11.9345 4.78701 11.9256L4.15254 11.6235ZM4.1307 11.6713C3.71419 12.6253 3.56993 13.6652 3.6888 14.6823L4.3868 14.6007C4.28191 13.7034 4.40953 12.789 4.77473 11.9525L4.1307 11.6713ZM3.6888 14.6823C3.6893 14.6865 3.68982 14.6908 3.69035 14.695L4.38766 14.6078C4.38736 14.6055 4.38708 14.6031 4.3868 14.6007L3.6888 14.6823ZM3.69035 14.695C3.73048 15.0161 3.78645 15.4371 3.90107 15.932L4.58569 15.7735C4.47947 15.3148 4.42702 14.9227 4.38766 14.6078L3.69035 14.695ZM3.90012 15.9278C4.22618 17.4188 4.55561 18.4246 4.81868 19.1622L5.48058 18.9262C5.2251 18.2098 4.90495 17.2332 4.58664 15.7777L3.90012 15.9278ZM4.81868 19.1622C4.88615 19.3514 4.94366 19.5099 4.99238 19.6441L5.65295 19.4043C5.60424 19.2701 5.54733 19.1133 5.48058 18.9262L4.81868 19.1622ZM4.99238 19.6441C5.15653 20.0963 5.20811 20.2438 5.22833 20.385L5.92397 20.2853C5.89089 20.0544 5.80542 19.8243 5.65295 19.4043L4.99238 19.6441ZM5.22789 20.3818C5.23325 20.4218 5.23479 20.4878 5.21331 20.7062L5.91268 20.775C5.9339 20.5592 5.94186 20.4188 5.92442 20.2885L5.22789 20.3818ZM5.21331 20.7062C5.21188 20.7207 5.21016 20.7373 5.20812 20.7569L5.90708 20.8297C5.90907 20.8106 5.91102 20.7919 5.91268 20.775L5.21331 20.7062ZM5.20812 20.7569C5.18938 20.937 5.14945 21.3095 5.19628 21.6841L5.8936 21.5969C5.85801 21.3122 5.88786 21.0143 5.90708 20.8297L5.20812 20.7569ZM5.19628 21.6841C5.27308 22.2985 5.4692 22.8441 5.81137 23.327L6.38477 22.9207C6.11791 22.5441 5.95793 22.1116 5.8936 21.5969L5.19628 21.6841ZM5.81137 23.327C6.13469 23.7833 6.5311 24.0996 6.85618 24.3334L7.26654 23.7629C6.96365 23.5451 6.64122 23.2826 6.38477 22.9207L5.81137 23.327ZM6.85614 24.3334C6.86013 24.3363 6.86404 24.3391 6.86784 24.3417L7.27306 23.7676C7.27079 23.766 7.26863 23.7645 7.26658 23.763L6.85614 24.3334ZM6.86782 24.3417C7.55466 24.8266 8.89929 25.651 11.825 26.0856L11.9282 25.3905C9.11688 24.9729 7.87483 24.1924 7.27308 23.7676L6.86782 24.3417ZM11.8254 26.0857L11.8287 26.0862L11.931 25.3909L11.9277 25.3904L11.8254 26.0857ZM11.8292 26.0863C12.61 26.2001 13.3356 26.2387 13.9589 26.2154L13.9326 25.5131C13.3566 25.5347 12.6739 25.4993 11.9306 25.3909L11.8292 26.0863ZM13.9589 26.2154C14.5399 26.1936 15.1634 26.1141 15.669 25.9072L15.4029 25.2568C15.0104 25.4174 14.4835 25.4925 13.9326 25.5131L13.9589 26.2154ZM15.6676 25.9078C16.3792 25.6204 16.9124 25.1518 17.2484 24.7998L16.7401 24.3146C16.4405 24.6284 15.9879 25.0205 15.4044 25.2562L15.6676 25.9078ZM17.2484 24.7998C17.5948 24.4369 17.8145 24.1099 17.8857 23.998L17.2929 23.6207C17.238 23.7069 17.0458 23.9943 16.7401 24.3146L17.2484 24.7998ZM17.8857 23.998C17.891 23.9898 17.8961 23.9815 17.9012 23.9733L17.3016 23.6068C17.2987 23.6115 17.2958 23.6161 17.2929 23.6207L17.8857 23.998ZM17.9012 23.9732C18.4948 23.0018 18.3136 22.0801 18.2203 21.6634L17.5346 21.8169C17.6188 22.1932 17.7459 22.8797 17.3015 23.6068L17.9012 23.9732ZM18.1163 21.9979C18.7281 21.431 18.863 21.2834 19.2175 20.8699L18.6839 20.4125C18.3491 20.8031 18.2333 20.9314 17.6386 21.4825L18.1163 21.9979ZM19.2174 20.8699C19.2203 20.8665 19.2232 20.8632 19.2259 20.86L18.6887 20.4068C18.687 20.4088 18.6855 20.4107 18.6839 20.4125L19.2174 20.8699ZM19.2259 20.8599C19.5031 20.5312 19.7115 20.305 19.9181 20.0809L19.4014 19.6046C19.1938 19.8299 18.9764 20.0656 18.6887 20.4069L19.2259 20.8599ZM19.9181 20.0809C19.9972 19.995 20.0767 19.9088 20.1591 19.8178L19.6381 19.3462C19.5582 19.4345 19.4808 19.5184 19.4014 19.6046L19.9181 20.0809ZM20.1509 19.8265L20.1614 19.8157L19.6567 19.3267L19.6462 19.3375L20.1509 19.8265ZM20.1614 19.8156C20.1692 19.8076 20.1784 19.7982 20.1887 19.7875L19.6835 19.299C19.6734 19.3095 19.6643 19.3188 19.6567 19.3267L20.1614 19.8156ZM20.1887 19.7875C20.2206 19.7545 20.2637 19.7098 20.3076 19.664L19.8002 19.1778C19.7573 19.2226 19.715 19.2665 19.6835 19.299L20.1887 19.7875ZM20.3076 19.6641C20.3505 19.6193 20.3981 19.5693 20.4373 19.5273L19.9238 19.0476C19.8877 19.0863 19.8425 19.1336 19.8002 19.1778L20.3076 19.6641ZM20.4373 19.5273C20.456 19.5073 20.4793 19.4822 20.5013 19.4575L19.9771 18.9895C19.9604 19.0082 19.9413 19.0288 19.9238 19.0476L20.4373 19.5273ZM20.5013 19.4576C20.5042 19.4543 20.5079 19.4501 20.5122 19.4452L19.9849 18.9807C19.982 18.984 19.9794 18.9869 19.9771 18.9895L20.5013 19.4576ZM20.4967 19.4617C20.7677 19.1914 20.9685 19.0914 21.0823 19.0544L20.8647 18.3861C20.6253 18.4641 20.3327 18.6328 20.0004 18.9642L20.4967 19.4617ZM21.0823 19.0544C21.0904 19.0517 21.0986 19.049 21.1069 19.0461L20.8785 18.3815C20.874 18.3831 20.8694 18.3846 20.8647 18.3861L21.0823 19.0544ZM21.1068 19.0461C22.4527 18.5838 23.635 18.0306 24.3386 16.6235L23.71 16.3093C23.1369 17.4555 22.1889 17.9314 20.8785 18.3815L21.1068 19.0461ZM24.3386 16.6235C25.0228 15.255 24.7632 13.8866 24.0997 12.8997L23.5165 13.2918C24.0594 14.0992 24.2655 15.1983 23.71 16.3093L24.3386 16.6235ZM24.0997 12.8997C23.4819 11.9806 22.4516 11.2906 21.3405 11.1626L21.2601 11.8608C22.1441 11.9625 23 12.5234 23.5165 13.2918L24.0997 12.8997ZM21.3418 11.1628C20.3127 11.0403 19.5545 11.24 18.8899 11.6277L19.244 12.2347C19.776 11.9243 20.3808 11.7561 21.2587 11.8606L21.3418 11.1628ZM18.8899 11.6277C18.6755 11.7527 18.466 11.9022 18.3226 12.0043L18.7303 12.5767C18.8773 12.4721 19.0615 12.3412 19.244 12.2347L18.8899 11.6277ZM18.3226 12.0043C18.2911 12.0268 18.2633 12.0466 18.2384 12.0641L18.6423 12.6391C18.6694 12.6201 18.6993 12.5988 18.7303 12.5767L18.3226 12.0043ZM18.2384 12.0641C18.0778 12.1769 17.9508 12.2593 17.8087 12.3311L18.1253 12.9584C18.3126 12.8639 18.4719 12.7588 18.6423 12.6391L18.2384 12.0641ZM17.8183 12.3264C17.7627 12.3523 17.699 12.3327 17.668 12.2758L17.0512 12.6126C17.2596 12.9941 17.7231 13.1465 18.1157 12.9631L17.8183 12.3264ZM17.6866 12.3156C17.6713 12.2768 17.654 12.2371 17.6343 12.1969L17.0031 12.5058C17.0142 12.5286 17.024 12.551 17.0326 12.5729L17.6866 12.3156ZM17.6518 12.2395C17.6222 12.1515 17.5776 11.945 17.5423 11.5216L16.842 11.5799C16.8785 12.0182 16.9284 12.293 16.9856 12.4632L17.6518 12.2395ZM17.5423 11.5216C17.517 11.2173 17.5016 10.8904 17.4834 10.5001L16.7814 10.5329C16.7995 10.92 16.8154 11.2605 16.842 11.5799L17.5423 11.5216ZM17.4834 10.5001C17.4732 10.2818 17.4621 10.0448 17.4479 9.78425L16.7462 9.82253C16.7602 10.08 16.7712 10.3145 16.7814 10.5329L17.4834 10.5001ZM17.4479 9.78425C17.3717 8.3878 17.2154 6.58728 16.5985 4.58229L15.9268 4.78896C16.5188 6.71291 16.6711 8.44687 16.7462 9.82253L17.4479 9.78425ZM16.5983 4.58178L16.5971 4.57781L15.9258 4.7855L15.927 4.78947L16.5983 4.58178ZM16.5969 4.57721C16.1382 3.10385 14.6844 1.52602 12.7217 1.65605L12.7682 2.35725C14.2973 2.25595 15.5269 3.50442 15.9259 4.7861L16.5969 4.57721ZM12.7242 1.65589C11.3287 1.73831 10.3608 2.43685 9.77803 3.37912L10.3757 3.74876C10.8471 2.98649 11.6151 2.42536 12.7657 2.35741L12.7242 1.65589ZM9.77811 3.37899C9.4987 3.83034 9.38753 4.32063 9.33823 4.71612L10.0356 4.80306C10.0784 4.45923 10.1704 4.08044 10.3756 3.74889L9.77811 3.37899ZM9.33823 4.71612C9.28709 5.12631 9.28884 5.55284 9.31301 5.95562L10.0145 5.91352C9.99179 5.53526 9.99166 5.1553 10.0356 4.80306L9.33823 4.71612ZM9.31301 5.95562C9.36109 6.75679 9.51066 7.64282 9.65603 8.4296L10.3471 8.30192C10.202 7.51659 10.0598 6.66772 10.0145 5.91352L9.31301 5.95562ZM9.65603 8.4296C9.69984 8.66675 9.74319 8.89467 9.78457 9.11227L10.4749 8.98098C10.4335 8.76314 10.3905 8.53699 10.3471 8.30192L9.65603 8.4296ZM9.78457 9.11227C9.88775 9.65479 9.97789 10.1292 10.0372 10.5417L10.7328 10.4416C10.6707 10.0102 10.5772 9.51884 10.4749 8.98098L9.78457 9.11227ZM10.0372 10.5417C10.0446 10.5932 10.0513 10.6419 10.0572 10.6879L10.7542 10.5983C10.7478 10.5486 10.7407 10.4964 10.7328 10.4416L10.0372 10.5417ZM11.84 11.3669L10.6288 10.3716L10.1826 10.9146L11.3939 11.9098L11.84 11.3669ZM11.0119 8.84804C11.1379 9.51088 11.2532 10.118 11.3116 10.6059C11.3408 10.8497 11.3542 11.0521 11.3498 11.2096C11.345 11.3784 11.3203 11.4492 11.3112 11.4651L11.9226 11.8116C12.0196 11.6404 12.0467 11.4253 12.0523 11.2294C12.0581 11.0222 12.0403 10.781 12.0094 10.5223C11.9474 10.0052 11.8267 9.37145 11.7022 8.71675L11.0119 8.84804ZM10.8451 4.03954C10.6786 4.30854 10.6012 4.64828 10.5697 5.00142C10.5378 5.3596 10.5507 5.76388 10.5888 6.18516C10.6651 7.02643 10.8471 7.98183 11.0119 8.84804L11.7022 8.71675C11.5358 7.84183 11.3613 6.92217 11.2887 6.12172C11.2525 5.72213 11.2429 5.36389 11.2697 5.06379C11.2969 4.75863 11.3592 4.54433 11.4427 4.40944L10.8451 4.03954ZM12.8034 2.90835C11.8412 2.96365 11.2292 3.41831 10.845 4.03973L11.4428 4.40925C11.7151 3.96879 12.1263 3.65117 12.8438 3.60994L12.8034 2.90835ZM15.3987 4.95024C15.0491 3.82726 13.9983 2.82633 12.7996 2.9086L12.8477 3.60969C13.6182 3.55681 14.4402 4.23558 14.7277 5.15913L15.3987 4.95024ZM16.2282 10.5264C16.1598 9.06955 16.0699 7.13168 15.399 4.95135L14.7274 5.15802C15.3696 7.24519 15.4579 9.1036 15.5262 10.5594L16.2282 10.5264ZM16.5062 12.7555C16.417 12.5462 16.357 12.2568 16.3151 11.8722C16.2736 11.4905 16.2525 11.0435 16.2282 10.5264L15.5262 10.5594C15.5502 11.0699 15.5721 11.5405 15.6165 11.9483C15.6606 12.3532 15.7294 12.7252 15.8598 13.0311L16.5062 12.7555ZM16.544 12.9126C16.544 12.9123 16.5441 12.9074 16.5439 12.902C16.5438 12.8965 16.5435 12.8853 16.5421 12.8713C16.5388 12.8386 16.5298 12.7938 16.5056 12.7455C16.4843 12.7031 16.4594 12.6747 16.4497 12.6639C16.4443 12.6579 16.4395 12.653 16.4371 12.6506C16.4347 12.6481 16.4323 12.6457 16.4315 12.6448L15.9345 13.1417C15.9396 13.1468 15.9337 13.141 15.9274 13.1341C15.9205 13.1264 15.8974 13.1004 15.8773 13.0604C15.8543 13.0145 15.846 12.9721 15.8429 12.9424C15.8409 12.9223 15.8413 12.904 15.8413 12.9126H16.544ZM18.3662 13.4554C17.6671 13.7934 16.8299 13.487 16.5142 12.7709L15.8712 13.0543C16.347 14.1338 17.6143 14.5996 18.6721 14.0881L18.3662 13.4554ZM19.0711 13.0122C18.8523 13.1677 18.6373 13.3198 18.362 13.4575L18.6763 14.086C19.0057 13.9213 19.2606 13.7396 19.4782 13.585L19.0711 13.0122ZM21.1963 12.4093C20.6729 12.3466 20.2726 12.3937 19.925 12.5203C19.5864 12.6436 19.3187 12.8362 19.0711 13.0122L19.4782 13.585C19.7367 13.4013 19.93 13.2664 20.1654 13.1807C20.3916 13.0983 20.6782 13.055 21.1128 13.107L21.1963 12.4093ZM23.2161 16.0623C23.6711 15.1522 23.5052 14.2646 23.0583 13.5999C22.6212 12.9498 21.9014 12.4895 21.1943 12.409L21.1148 13.1073C21.595 13.1619 22.1398 13.4933 22.4751 13.9919C22.8004 14.4759 22.9144 15.0943 22.5875 15.748L23.2161 16.0623ZM20.6991 17.8593C21.9815 17.4187 22.7455 17.0036 23.2161 16.0623L22.5875 15.748C22.2473 16.4285 21.7177 16.7663 20.4708 17.1946L20.6991 17.8593ZM19.5716 18.6125C19.9658 18.2093 20.3438 17.975 20.6938 17.8611L20.4762 17.1928C19.996 17.3492 19.5244 17.6555 19.0691 18.1212L19.5716 18.6125ZM18.9825 18.724C19.2345 18.9688 19.2345 18.9688 19.2345 18.9688C19.2345 18.9688 19.2346 18.9688 19.2346 18.9688C19.2346 18.9688 19.2346 18.9688 19.2346 18.9687C19.2347 18.9687 19.2347 18.9686 19.2348 18.9685C19.235 18.9684 19.2352 18.9681 19.2355 18.9678C19.2362 18.9671 19.2371 18.9662 19.2383 18.9649C19.2408 18.9624 19.2444 18.9587 19.2489 18.954C19.258 18.9446 19.271 18.9313 19.2865 18.9151C19.3177 18.8829 19.3594 18.8397 19.4015 18.7957C19.4434 18.752 19.4866 18.7067 19.5203 18.6706C19.5369 18.6528 19.5526 18.6358 19.5652 18.6217C19.5712 18.6149 19.5785 18.6067 19.5854 18.5984C19.5887 18.5944 19.5939 18.588 19.5997 18.5804C19.6012 18.5783 19.6189 18.5554 19.6346 18.5239L19.0061 18.2097C19.0154 18.1911 19.0242 18.1777 19.0276 18.1727C19.0319 18.1662 19.0355 18.1613 19.0375 18.1587C19.0414 18.1535 19.0442 18.15 19.0446 18.1496C19.0456 18.1484 19.0448 18.1494 19.041 18.1537C19.0337 18.1618 19.0222 18.1743 19.0068 18.1909C18.9762 18.2236 18.9355 18.2664 18.8941 18.3095C18.853 18.3524 18.8121 18.3949 18.7813 18.4266C18.766 18.4425 18.7533 18.4557 18.7444 18.4648C18.7399 18.4694 18.7364 18.473 18.7341 18.4755C18.7329 18.4767 18.732 18.4776 18.7314 18.4782C18.7311 18.4785 18.7308 18.4788 18.7307 18.4789C18.7306 18.479 18.7306 18.4791 18.7305 18.4791C18.7305 18.4791 18.7305 18.4791 18.7305 18.4791C18.7305 18.4791 18.7305 18.4791 18.7305 18.4792C18.7305 18.4792 18.7305 18.4792 18.9825 18.724ZM19.0105 19.2137C19.0904 19.127 19.1679 19.043 19.2433 18.9595L18.7218 18.4885C18.6491 18.5689 18.5741 18.6502 18.4938 18.7375L19.0105 19.2137ZM18.2665 20.051C18.5626 19.6998 18.7984 19.4439 19.0105 19.2137L18.4938 18.7375C18.2808 18.9685 18.036 19.2341 17.7292 19.598L18.2665 20.051ZM16.9807 21.3381C17.8255 20.5613 17.9043 20.4735 18.2646 20.0531L17.7311 19.5958C17.3963 19.9864 17.34 20.053 16.5051 20.8208L16.9807 21.3381ZM16.9743 21.843C16.9338 21.6654 16.9125 21.561 16.916 21.4764C16.9185 21.4177 16.9316 21.3827 16.979 21.3396L16.5068 20.8192C16.3031 21.004 16.2231 21.2248 16.2139 21.4474C16.2057 21.6442 16.2544 21.8467 16.2891 21.9991L16.9743 21.843ZM16.8304 23.3188C17.1867 22.7357 17.0546 22.1954 16.9743 21.843L16.2891 21.9991C16.3707 22.3573 16.4249 22.6347 16.2307 22.9524L16.8304 23.3188ZM15.1943 24.7455C15.6786 24.5507 16.069 24.2179 16.3406 23.9333C16.6144 23.6465 16.785 23.3902 16.827 23.3243L16.2341 22.947C16.2085 22.9872 16.0654 23.2039 15.8323 23.4481C15.5971 23.6944 15.2876 23.9505 14.9321 24.0935L15.1943 24.7455ZM12.0103 24.8444C12.7241 24.9485 13.373 24.9815 13.9119 24.9613C14.442 24.9414 14.8938 24.8693 15.197 24.7444L14.9294 24.0946C14.7403 24.1725 14.3861 24.2403 13.8856 24.2591C13.394 24.2775 12.788 24.2477 12.1117 24.1491L12.0103 24.8444ZM7.59153 23.3165C8.12641 23.694 9.28784 24.44 12.0094 24.8443L12.1126 24.1492C9.50542 23.7619 8.44657 23.0599 7.99679 22.7424L7.59153 23.3165ZM6.44154 21.5284C6.49605 21.9645 6.62757 22.3082 6.83534 22.6015C7.03901 22.8889 7.30298 23.1089 7.58899 23.3147L7.99934 22.7442C7.7351 22.5541 7.54536 22.388 7.40874 22.1952C7.27622 22.0082 7.18088 21.7775 7.13886 21.4413L6.44154 21.5284ZM6.45744 20.8773C6.43817 21.0708 6.41338 21.3032 6.44154 21.5284L7.13886 21.4413C7.12232 21.309 7.13562 21.1589 7.15673 20.947L6.45744 20.8773ZM6.47105 20.2101C6.50085 20.4272 6.48132 20.6376 6.45744 20.8773L7.15673 20.947C7.17967 20.7166 7.21003 20.4262 7.16726 20.1146L6.47105 20.2101ZM6.14178 19.1303C6.32062 19.6203 6.43123 19.9281 6.47123 20.2115L7.16708 20.1132C7.1145 19.7408 6.97221 19.3559 6.80191 18.8894L6.14178 19.1303ZM5.12439 15.6519C5.50021 17.3725 5.87719 18.4055 6.14178 19.1303L6.80191 18.8894C6.54191 18.1771 6.17701 17.1778 5.81095 15.502L5.12439 15.6519ZM4.93561 14.5394C4.9746 14.8513 5.02464 15.2231 5.12543 15.6565L5.80991 15.4974C5.71763 15.1006 5.67115 14.758 5.63292 14.4522L4.93561 14.5394ZM5.28081 12.1735C4.9559 12.9176 4.84139 13.7334 4.93527 14.5366L5.63326 14.455C5.55338 13.7715 5.65123 13.0813 5.92484 12.4547L5.28081 12.1735ZM5.63132 11.4718C5.49167 11.7311 5.38223 11.96 5.28558 12.163L5.92006 12.4652C6.01648 12.2627 6.11942 12.0476 6.25006 11.8049L5.63132 11.4718ZM6.89778 9.35221C6.63261 9.73245 6.31486 10.2651 6.06698 10.6956C5.9422 10.9122 5.8336 11.1057 5.75618 11.245C5.71746 11.3147 5.68649 11.3709 5.66516 11.4098C5.65449 11.4293 5.64623 11.4444 5.64061 11.4547C5.6378 11.4598 5.63564 11.4638 5.63418 11.4665C5.63345 11.4678 5.63289 11.4689 5.63251 11.4696C5.63232 11.4699 5.63217 11.4702 5.63206 11.4704C5.63201 11.4705 5.63197 11.4705 5.63194 11.4706C5.63193 11.4706 5.63191 11.4707 5.63191 11.4707C5.6319 11.4707 5.63189 11.4707 5.94069 11.6383C6.2495 11.806 6.24949 11.806 6.24949 11.806C6.2495 11.806 6.2495 11.806 6.24951 11.806C6.24952 11.8059 6.24955 11.8059 6.24959 11.8058C6.24966 11.8057 6.24978 11.8055 6.24994 11.8052C6.25027 11.8046 6.25077 11.8036 6.25144 11.8024C6.25279 11.7999 6.25482 11.7962 6.2575 11.7913C6.26288 11.7814 6.27088 11.7668 6.28127 11.7478C6.30206 11.71 6.33241 11.6549 6.37046 11.5864C6.44659 11.4494 6.55338 11.2591 6.67597 11.0462C6.92284 10.6175 7.22774 10.1076 7.4742 9.75419L6.89778 9.35221ZM8.59254 8.88914C8.31884 8.80493 8.01378 8.74861 7.71187 8.80471C7.394 8.86376 7.11596 9.04052 6.89813 9.3517L7.47384 9.7547C7.59389 9.5832 7.71647 9.51862 7.84024 9.49562C7.97998 9.46966 8.1576 9.49057 8.38587 9.56081L8.59254 8.88914ZM4.53884 10.8539L4.52925 10.8715L5.1464 11.2076L5.15599 11.19L4.53884 10.8539Z" fill="white" mask="url(#path-3-outside-1_1518_3096)"/>
<path d="M12.9876 8.27905L16.1926 9.37955C17.0903 9.68846 17.5634 10.6635 17.2544 11.5516C17.1 12.0053 16.7621 12.3625 16.3567 12.5459C15.9705 12.7293 15.5168 12.7679 15.0728 12.6135" fill="white"/>
<path fill-rule="evenodd" clip-rule="evenodd" d="M12.3942 8.07523C12.5067 7.74747 12.8636 7.57301 13.1914 7.68555L16.3967 8.78618C17.6207 9.20732 18.27 10.5384 17.8478 11.7557C17.6368 12.3739 17.1781 12.8611 16.6206 13.1151C16.0922 13.3645 15.47 13.4159 14.8666 13.2061C14.5393 13.0922 14.3663 12.7346 14.4801 12.4073C14.594 12.08 14.9516 11.9069 15.2789 12.0208C15.5616 12.1191 15.8447 12.0944 16.0875 11.9791C16.091 11.9774 16.0945 11.9757 16.0981 11.9741C16.3485 11.8609 16.563 11.6357 16.6605 11.3493L16.6618 11.3454C16.856 10.787 16.5594 10.1694 15.9886 9.9729C15.9885 9.97288 15.9885 9.97286 15.9884 9.97284L12.7839 8.87248C12.4561 8.75993 12.2816 8.40299 12.3942 8.07523Z" fill="black"/>
<path d="M11.0956 7.46808C10.9797 5.58566 10.5646 4.85199 11.0087 4.13764C11.3369 3.61635 11.8485 3.23021 12.6884 3.17229C13.6827 3.11437 14.6094 3.94457 14.928 4.96783C16.0478 8.60719 15.5169 11.5515 16.0478 12.8064C16.154 13.0671 16.2988 13.3084 16.4629 13.5208C17.0131 14.2351 17.8047 14.4379 18.5867 14.0035C19.9671 13.2312 19.2334 12.7099 21.0193 12.8161C22.0716 12.874 23.674 14.2738 23.0466 15.9631C22.5542 17.2953 20.4498 16.996 19.2045 17.9614C18.9824 18.1351 19.1948 18.2606 18.9921 18.502C18.7411 18.8109 18.2198 19.3225 17.8723 19.7376C17.5344 20.1527 17.4572 20.2299 16.6173 20.9926C16.0961 21.4656 17.1097 22.2475 16.405 23.0488C16.3181 23.1453 15.6424 24.0624 14.9377 24.3327C14.4357 24.5257 13.3255 24.6223 11.9354 24.4099C9.27106 24.0141 8.22849 23.3577 7.73616 23.0101C7.18591 22.6144 6.76116 22.3151 6.66463 21.5332C6.61636 21.147 6.76117 20.5582 6.6936 20.0658C6.57775 19.2453 6.03716 18.0965 5.40968 15.2681C5.21661 14.3993 5.25523 13.376 5.25523 13.376C5.36142 12.5072 5.50622 12.1597 5.81513 11.5418C5.81513 11.5418 6.54879 10.1228 7.06042 9.45669C7.4176 8.98367 7.86166 8.96436 8.36364 9.12847C8.3926 9.13813 8.86562 9.27328 8.89458 9.28293C8.89458 9.28293 9.45448 7.76734 10.1495 7.64184C10.8446 7.51635 11.1149 7.64184 11.1149 7.64184V7.46808H11.0956Z" fill="white"/>
<path d="M15.7196 24.1396C15.6521 24.1782 14.986 24.4871 14.8798 24.2651C14.8122 24.1203 14.5033 23.3287 14.4357 22.6916C14.3681 22.0255 14.3681 21.369 14.3778 21.369C14.6288 21.2822 16.1058 21.6973 16.0961 21.2532C16.0961 21.0408 16.2506 21.0987 16.3085 21.2629C16.4726 21.7359 16.8105 22.0351 16.5209 23.0198C16.2409 24.0141 16.0189 23.9948 15.7196 24.1396Z" fill="#D9D9D9"/>
<path d="M11.4045 7.61304C11.4045 7.61304 10.7674 7.76749 10.7481 7.87368C10.5068 8.98382 10.111 10.8469 10.111 11.3103C10.1303 12.4011 11.4817 12.488 11.9644 12.1019C12.4857 11.6868 11.4045 7.61304 11.4045 7.61304Z" fill="#D9D9D9"/>
<path d="M8.25749 11.6482C8.25749 11.6482 7.96789 11.8606 8.05477 11.9088C8.09339 11.9281 8.02581 11.9378 8.02581 11.9378C7.77482 11.9378 7.43695 11.8123 7.35007 11.542C7.27284 11.3007 7.39834 11.0883 7.408 11.0786L8.34438 9.40859C8.42161 9.29275 8.85601 9.24448 8.99115 9.29275C9.01046 9.3024 9.02012 9.3024 9.02012 9.31206L8.25749 11.6482Z" fill="#D9D9D9"/>
<path d="M12.5822 3.71286C12.8043 3.71286 13.2773 3.99281 13.6055 4.6589C13.9337 5.3443 14.1847 6.51237 14.3295 7.90247C14.3971 8.59751 14.4743 10.2869 14.5515 11.2329C14.6577 12.4782 14.9763 13.2891 15.4686 13.7911C16.2119 14.544 17.0904 14.8916 17.6407 14.9688C18.2392 15.0557 18.8763 14.824 18.8666 14.824C18.8184 14.7854 18.606 14.7178 18.6253 14.6985C18.6832 14.6502 18.4419 14.6213 18.4322 14.602C18.4226 14.5537 16.8587 14.3992 16.9842 14.4668C16.9842 14.4668 15.6327 14.0614 15.5362 12.3817C15.4493 10.7213 15.6424 3.5391 12.4761 3.60667C12.4374 3.60667 12.2251 3.69356 12.3602 3.71286C12.4085 3.73217 12.505 3.71286 12.5822 3.71286Z" fill="#D9D9D9"/>
<path d="M21.9557 13.1927C22.3033 13.1927 21.2221 12.8934 21.1835 12.8838C20.4884 12.8162 20.3533 13.0769 19.803 13.3954C18.8763 13.936 17.631 13.8878 17.9109 14.2353C17.9109 14.2353 17.8144 14.5828 18.2392 14.7083C18.5577 14.8048 18.7411 14.8434 18.9149 14.7855C19.0597 14.7373 19.4941 14.5249 19.7837 14.3029C20.2664 13.9167 20.556 13.6271 20.7298 13.5306C21.1256 13.3279 21.5889 13.1927 21.9557 13.1927Z" fill="#D9D9D9"/>
<path fill-rule="evenodd" clip-rule="evenodd" d="M12.7842 2.63291C14.1497 2.54131 15.2886 3.66789 15.6623 4.86819L15.6629 4.87017C16.2451 6.76225 16.3958 8.47003 16.4704 9.83759C16.4839 10.0833 16.4946 10.3132 16.5048 10.5298C16.5234 10.9277 16.5399 11.2804 16.5668 11.6029C16.6057 12.07 16.6615 12.3892 16.7421 12.6021C16.7456 12.6085 16.749 12.6151 16.7525 12.6219C16.7655 12.6479 16.776 12.6733 16.7844 12.6976C17.0489 13.2424 17.6976 13.4697 18.2425 13.2086C18.4505 13.1042 18.6243 12.9892 18.801 12.8651C18.8328 12.8428 18.8659 12.8192 18.9001 12.7949C19.0458 12.6912 19.2122 12.5729 19.3831 12.4732C19.8633 12.1931 20.408 12.0371 21.2274 12.1349C22.023 12.2262 22.8107 12.7368 23.2874 13.4458C23.782 14.1816 23.9684 15.175 23.463 16.1858C22.9411 17.2296 22.0852 17.6751 20.7888 18.1204C20.7856 18.1215 20.7824 18.1226 20.7792 18.1236C20.4858 18.2192 20.1516 18.4194 19.7891 18.7851C19.7823 18.793 19.776 18.8002 19.7711 18.8056C19.7565 18.822 19.7391 18.8408 19.722 18.8591C19.6871 18.8965 19.643 18.9428 19.6008 18.9868C19.5583 19.0312 19.5163 19.0747 19.485 19.1071C19.4693 19.1233 19.4563 19.1368 19.4471 19.1462L19.4405 19.153C19.3629 19.2388 19.2856 19.3227 19.2059 19.4092C18.9959 19.6371 18.7694 19.8828 18.4775 20.229L18.4742 20.2328C18.1076 20.6606 18.018 20.759 17.1927 21.5183C17.1965 21.5699 17.2133 21.6485 17.2523 21.8205C17.3336 22.1794 17.4716 22.799 17.0659 23.4628C17.0647 23.4648 17.0636 23.4667 17.0624 23.4686C17.0615 23.4699 17.0607 23.4712 17.0599 23.4725C17.0115 23.5486 16.8301 23.8204 16.5403 24.124C16.2548 24.4231 15.8334 24.7855 15.2997 25.0007C14.9518 25.1434 14.4626 25.217 13.9222 25.2372C13.3648 25.2581 12.6989 25.2239 11.9704 25.1177L11.9688 25.1174C9.20233 24.7065 8.00059 23.9432 7.43228 23.5421L7.42773 23.5388C7.13318 23.3269 6.84004 23.0857 6.61003 22.7611C6.3727 22.4262 6.22696 22.038 6.16754 21.5627C6.13588 21.3094 6.16253 21.0474 6.18186 20.8573C6.18381 20.8381 6.18569 20.8197 6.18743 20.802C6.209 20.5827 6.22019 20.4143 6.19764 20.2488C6.16123 19.9923 6.06421 19.7258 5.89561 19.2625C5.8494 19.1355 5.79781 18.9938 5.74061 18.8334C5.4879 18.1248 5.17105 17.1586 4.85551 15.7149C4.75202 15.2689 4.70078 14.887 4.66161 14.5736L4.661 14.5686C4.56162 13.7184 4.68268 12.8533 5.02774 12.063C5.03048 12.0567 5.03332 12.0505 5.03627 12.0443C5.13301 11.8412 5.245 11.6068 5.38819 11.3409L5.38921 11.339L5.94066 11.6384C5.38921 11.339 5.38919 11.339 5.38921 11.339L5.38928 11.3389L5.38942 11.3386L5.39821 11.3225C5.40393 11.312 5.41229 11.2967 5.42307 11.277C5.44461 11.2378 5.47582 11.1811 5.51481 11.1109C5.59274 10.9707 5.70204 10.776 5.82769 10.5578C6.07595 10.1267 6.39876 9.58508 6.67128 9.19429L6.67191 9.19338C6.92815 8.82732 7.26728 8.60649 7.66141 8.53326C8.02703 8.46533 8.38216 8.53556 8.67371 8.62527C8.67836 8.6267 8.68299 8.62818 8.6876 8.62972C8.70747 8.63634 8.72954 8.64492 8.73772 8.6481L8.73902 8.6486C8.75243 8.6538 8.76865 8.66019 8.78586 8.66702C8.82045 8.68073 8.8637 8.69803 8.90563 8.7148C8.94817 8.73181 8.98939 8.7483 9.02177 8.76114C9.03804 8.76759 9.05094 8.77266 9.06008 8.7762C9.06288 8.77729 9.06494 8.77808 9.06636 8.77862C9.38748 8.89274 9.55954 9.24345 9.45129 9.56822C9.3417 9.89698 8.98635 10.0747 8.65759 9.96507C8.63655 9.95806 8.61305 9.94886 8.60617 9.94619C8.59276 9.94099 8.57655 9.9346 8.55933 9.92777C8.52482 9.91409 8.48169 9.89684 8.43984 9.88011L8.43956 9.87999C8.39702 9.86298 8.3558 9.84649 8.32342 9.83365C8.30856 9.82776 8.29651 9.82302 8.28757 9.81954C8.08728 9.75961 7.9646 9.75336 7.89065 9.7671C7.84319 9.77592 7.78177 9.79639 7.70027 9.91267C7.46122 10.2555 7.16156 10.7562 6.91521 11.184C6.79348 11.3954 6.6874 11.5844 6.61178 11.7205C6.57399 11.7885 6.54388 11.8432 6.52331 11.8807C6.51302 11.8994 6.50513 11.9139 6.49985 11.9235L6.49393 11.9344L6.49314 11.9358C6.49295 11.9362 6.49277 11.9365 6.49258 11.9369C6.36775 12.1688 6.2687 12.3752 6.17391 12.5742C5.92376 13.1516 5.8337 13.7882 5.90719 14.4205C5.94505 14.7233 5.99012 15.0535 6.07881 15.4348C6.07944 15.4376 6.08006 15.4403 6.08066 15.4431C6.38265 16.8256 6.68326 17.7407 6.92264 18.4119C6.96548 18.532 7.00818 18.6486 7.04972 18.762C7.22743 19.2473 7.38399 19.6748 7.44044 20.0746L7.44077 20.077C7.48558 20.4035 7.45816 20.7031 7.43635 20.9249L7.4361 20.9274C7.41175 21.175 7.39944 21.3002 7.4128 21.4071C7.44992 21.704 7.53104 21.8903 7.63399 22.0356C7.74395 22.1908 7.90393 22.3353 8.15835 22.5185C8.57614 22.8133 9.5955 23.496 12.1523 23.876C12.8136 23.9724 13.4024 24.0009 13.8752 23.9832C14.3641 23.9648 14.6799 23.8988 14.8243 23.8393L14.829 23.8374C15.134 23.7147 15.4117 23.4888 15.6326 23.2574C15.8405 23.0396 15.9707 22.8458 15.9981 22.8034C16.1201 22.6006 16.1033 22.4287 16.0283 22.0977C16.0253 22.0843 16.022 22.0698 16.0184 22.0545C15.9849 21.9096 15.9328 21.6846 15.9371 21.4659C15.9428 21.1737 16.0438 20.8674 16.3194 20.6164C17.1374 19.8643 17.1953 19.7966 17.5076 19.4323L17.5181 19.42C17.5187 19.4194 17.5192 19.4187 17.5197 19.4181C17.8301 19.0501 18.0842 18.7744 18.2983 18.542C18.3762 18.4575 18.4488 18.3788 18.5168 18.3034C18.5219 18.2978 18.5271 18.2922 18.5324 18.2868L18.5461 18.2727C18.5534 18.2651 18.5633 18.2549 18.5752 18.2427L18.5828 18.2347C18.6134 18.2031 18.654 18.161 18.6948 18.1185C18.7359 18.0756 18.7756 18.0338 18.805 18.0024C18.8146 17.9921 18.8222 17.9839 18.8277 17.9779C18.8284 17.9771 18.8291 17.9763 18.8297 17.9756C18.8429 17.9591 18.8569 17.9433 18.8717 17.9281C19.3494 17.4395 19.8561 17.1055 20.3855 16.932C21.615 16.5093 22.0519 16.2019 22.3406 15.6246C22.6171 15.0715 22.5235 14.559 22.2459 14.146C21.9506 13.7068 21.4746 13.4261 21.0835 13.3816L21.0799 13.3812C20.5295 13.3153 20.2589 13.4151 20.0154 13.5572C19.898 13.6257 19.7902 13.7022 19.6505 13.8014C19.6107 13.8296 19.5683 13.8597 19.5223 13.892C19.3261 14.0299 19.0919 14.1869 18.7997 14.333C18.7984 14.3337 18.7971 14.3343 18.7958 14.335C18.7946 14.3355 18.7934 14.3361 18.7923 14.3367C17.5981 14.9141 16.1685 14.392 15.6248 13.18C15.618 13.1667 15.6116 13.1532 15.6058 13.1394C15.4307 12.7287 15.3592 12.2235 15.3162 11.707C15.2875 11.3629 15.2691 10.9708 15.2496 10.556C15.2396 10.3441 15.2294 10.1263 15.2174 9.90596C15.1448 8.57566 15.0011 6.98716 14.4638 5.2403C14.2004 4.39563 13.4686 3.84385 12.8665 3.88516C12.8642 3.88532 12.8619 3.88547 12.8596 3.8856C12.2383 3.9213 11.9059 4.18508 11.6776 4.55445L11.6774 4.55478C11.6338 4.62513 11.5837 4.76081 11.5548 4.99248C11.5267 5.21838 11.5233 5.49681 11.5428 5.82182C11.5819 6.47351 11.708 7.24119 11.8526 8.02377C11.891 8.23177 11.931 8.44194 11.9707 8.6506C12.0769 9.20903 12.1811 9.75674 12.2482 10.2236C12.2946 10.5462 12.3275 10.8559 12.3294 11.1242C12.331 11.3634 12.3118 11.6847 12.1628 11.9477C11.992 12.2492 11.609 12.3551 11.3075 12.1843C11.0122 12.0169 10.9045 11.6461 11.0609 11.3476C11.0608 11.3476 11.0607 11.3477 11.0607 11.3476C11.059 11.3471 11.0755 11.2902 11.0744 11.1329C11.0731 10.949 11.0496 10.7046 11.0061 10.4023C10.9432 9.96546 10.8473 9.46122 10.7433 8.91442C10.7025 8.6996 10.6604 8.47822 10.6186 8.25178C10.4735 7.46688 10.3342 6.63268 10.2901 5.897C10.2679 5.52831 10.2685 5.16668 10.3095 4.83723C10.3499 4.51369 10.4342 4.17891 10.6102 3.89457C11.0378 3.20278 11.7277 2.69463 12.7842 2.63291ZM15.7393 13.337C15.7425 13.3402 15.7419 13.3397 15.7391 13.3368C15.7392 13.3369 15.7392 13.3369 15.7393 13.337ZM15.5652 12.9184C15.565 12.9097 15.5652 12.9065 15.5652 12.9126C15.5652 12.9145 15.5652 12.9164 15.5652 12.9184Z" fill="black"/>
<path d="M7.15697 12.9318C7.2342 13.0476 7.07975 13.1731 7.03148 13.4627C7.01218 13.5882 7.01217 13.6655 7.05078 13.7717C7.07009 13.8585 7.28247 14.235 6.93495 14.1385C6.75153 14.0902 6.56811 13.9358 6.5295 13.6751C6.48123 13.4145 6.60673 13.1538 6.80945 12.9994C6.98321 12.8835 7.11836 12.8835 7.15697 12.9318Z" fill="#D9D9D9"/>
<path d="M9.97583 12.2948C10.1013 12.4493 9.88895 12.6327 9.85033 13.0478C9.83103 13.2312 9.84068 13.3277 9.8986 13.4822C9.93722 13.598 10.2558 14.1097 9.77311 14.0131C9.51247 13.9552 9.24217 13.7525 9.15529 13.3857C9.06841 13.0285 9.21321 12.652 9.50281 12.4107C9.72484 12.2272 9.92757 12.2273 9.97583 12.2948Z" fill="#D9D9D9"/>
<path fill-rule="evenodd" clip-rule="evenodd" d="M8.86147 8.44958C9.23317 7.60982 10.1428 7.08641 11.083 7.28891C11.1187 7.29661 11.1536 7.30739 11.1872 7.32104C11.1901 7.32187 11.1933 7.32279 11.1968 7.3238C11.2275 7.33249 11.28 7.34741 11.3327 7.36496C11.6614 7.47455 11.8391 7.8299 11.7295 8.15866C11.6199 8.48742 11.2646 8.6651 10.9358 8.55551C10.9118 8.54749 10.8876 8.54059 10.8548 8.53125C10.8504 8.53 10.8459 8.52871 10.8412 8.52737L10.8409 8.52727C10.8267 8.52321 10.802 8.51618 10.778 8.5083C10.4751 8.46308 10.1533 8.63351 10.0098 8.95587L8.82334 11.6856C8.68521 12.0034 8.31558 12.1491 7.99776 12.0109C7.67993 11.8728 7.53427 11.5032 7.6724 11.1854L8.85978 8.45344L8.86147 8.44958Z" fill="black"/>
<path d="M18.8376 14.8433C18.7121 14.8915 18.5867 14.9205 18.4708 14.9301C18.3453 14.9494 18.2295 14.9494 18.104 14.9494C17.9881 14.9398 17.8626 14.9301 17.7468 14.9108C17.6889 14.9012 17.631 14.8819 17.573 14.8722C17.5151 14.8529 17.4572 14.8433 17.3993 14.8239C16.9552 14.6791 16.5498 14.4185 16.2216 14.0806C16.0574 13.9165 15.9126 13.7235 15.7871 13.5207C15.6713 13.318 15.5651 13.1056 15.5072 12.874C15.372 12.4202 15.3624 11.9279 15.5265 11.4549L15.5362 11.4259C15.5458 11.4066 15.5651 11.397 15.5844 11.397C15.5941 11.397 15.6037 11.4066 15.6134 11.4163C15.7582 11.7928 15.9126 12.1692 16.125 12.5071L16.2023 12.6326L16.2409 12.7002L16.2891 12.7581L16.4629 12.9995C16.5208 13.0767 16.5884 13.1539 16.656 13.2311L16.7525 13.347L16.8587 13.4532C16.9263 13.5207 16.9938 13.598 17.0711 13.6655L17.2931 13.8586L17.5344 14.042L17.7854 14.2158C17.8723 14.2737 17.9592 14.322 18.0364 14.3702C18.1233 14.4185 18.2102 14.4668 18.297 14.515C18.4708 14.6116 18.6542 14.6888 18.8473 14.7564C18.8666 14.766 18.8763 14.7853 18.8763 14.8046C18.8763 14.8143 18.8666 14.824 18.857 14.8336L18.8376 14.8433Z" fill="black"/>
<path d="M14.4357 21.3209C14.7446 21.3016 15.0535 21.2437 15.3335 21.1568C15.6134 21.0699 15.8741 20.9541 16.1058 20.8093C16.1347 20.7899 16.1637 20.7706 16.1926 20.7513C16.2216 20.732 16.2409 20.7031 16.2699 20.6838L16.3471 20.6162C16.3664 20.5969 16.3954 20.5776 16.4147 20.5486C16.4629 20.5003 16.5015 20.4521 16.5595 20.4231C16.5884 20.4038 16.6174 20.3942 16.6367 20.3748C16.6657 20.3555 16.6946 20.3459 16.7236 20.3266C16.8491 20.2783 16.9746 20.2204 17.129 20.1721C17.2062 20.1528 17.2835 20.1239 17.3704 20.1045C17.4572 20.0852 17.5538 20.0563 17.6696 20.0466H17.6793C17.7179 20.0466 17.7565 20.0756 17.7661 20.1142C17.8337 20.5486 17.6889 20.9251 17.4379 21.205C17.3703 21.2726 17.3124 21.3498 17.2256 21.3981C17.1483 21.4464 17.0614 21.485 16.9746 21.5236C16.8877 21.5526 16.7911 21.5719 16.7043 21.6008L16.5691 21.6395C16.5208 21.6491 16.4822 21.6588 16.434 21.6684C16.0768 21.7553 15.7196 21.7746 15.3721 21.736C15.0246 21.6877 14.6963 21.6008 14.3971 21.4464C14.3681 21.4271 14.3585 21.3981 14.3778 21.3692C14.3874 21.3305 14.4067 21.3209 14.4357 21.3209Z" fill="black"/>
<path d="M8.5278 20.7513C8.2382 20.7513 7.94859 20.6838 7.66864 20.5776C7.60107 20.5486 7.5335 20.5197 7.46592 20.4907L7.2632 20.3845L7.07013 20.259C7.00256 20.2107 6.95429 20.1625 6.88671 20.1142C6.82879 20.0659 6.77087 20.0177 6.71295 19.9598C6.65503 19.9115 6.58746 19.8536 6.53919 19.7956C6.48127 19.7377 6.433 19.6702 6.39439 19.6026C6.35578 19.535 6.32682 19.4578 6.29786 19.3805C6.21097 19.0813 6.21096 18.7434 6.38473 18.4249C6.40403 18.3959 6.433 18.3862 6.46196 18.4056C6.61641 18.5117 6.71294 18.6179 6.81913 18.7145C6.92532 18.811 6.9929 18.9075 7.07013 19.0041C7.10875 19.0523 7.13771 19.1006 7.16667 19.1489C7.19563 19.1971 7.22458 19.2551 7.24389 19.3033C7.25354 19.3323 7.2632 19.3612 7.27285 19.3902L7.31147 19.4771L7.35007 19.564C7.35973 19.5929 7.37903 19.6122 7.39834 19.6412C7.53349 19.8439 7.69761 20.037 7.89068 20.2107C8.08374 20.3845 8.29612 20.539 8.53745 20.6741C8.55676 20.6838 8.56641 20.7127 8.55675 20.732C8.55675 20.7513 8.54711 20.761 8.5278 20.7513Z" fill="black"/>
</svg>
